<?xml version="1.0" encoding="UTF-8" standalone="no"?>
<!DOCTYPE svg PUBLIC "-//W3C//DTD SVG 1.1//EN"
 "http://www.w3.org/Graphics/SVG/1.1/DTD/svg11.dtd">
<!-- Generated by graphviz version 2.36.0 (20140111.2315)
 -->
<!-- Title: G Pages: 1 -->
<svg width="318pt" height="222pt"
 viewBox="0.00 0.00 318.00 222.00" xmlns="http://www.w3.org/2000/svg" xmlns:xlink="http://www.w3.org/1999/xlink">
<g id="graph0" class="graph" transform="scale(1 1) rotate(0) translate(4 218)">
<title>G</title>
<polygon fill="white" stroke="none" points="-4,4 -4,-218 314,-218 314,4 -4,4"/>
<g id="clust1" class="cluster"><title>cluster_Global</title>
<path fill="none" stroke="gray" d="M20,-44C20,-44 290,-44 290,-44 296,-44 302,-50 302,-56 302,-56 302,-194 302,-194 302,-200 296,-206 290,-206 290,-206 20,-206 20,-206 14,-206 8,-200 8,-194 8,-194 8,-56 8,-56 8,-50 14,-44 20,-44"/>
<text text-anchor="middle" x="155" y="-193.2" font-family="Times,serif" font-size="11.00" fill="gray">Global</text>
</g>
<g id="clust2" class="cluster"><title>cluster_\ReCaptcha</title>
<path fill="none" stroke="gray" d="M28,-52C28,-52 282,-52 282,-52 288,-52 294,-58 294,-64 294,-64 294,-166 294,-166 294,-172 288,-178 282,-178 282,-178 28,-178 28,-178 22,-178 16,-172 16,-166 16,-166 16,-64 16,-64 16,-58 22,-52 28,-52"/>
<text text-anchor="middle" x="155" y="-165.2" font-family="Times,serif" font-size="11.00" fill="gray">ReCaptcha</text>
</g>
<!-- \\ReCaptcha\\CaptchaException -->
<g id="node1" class="node"><title>\\ReCaptcha\\CaptchaException</title>
<polygon fill="none" stroke="black" points="285.5,-96 188.5,-96 188.5,-60 285.5,-60 285.5,-96"/>
<text text-anchor="middle" x="237" y="-75.2" font-family="Times,serif" font-size="11.00">CaptchaException</text>
</g>
<!-- \\Exception -->
<g id="node4" class="node"><title>\\Exception</title>
<ellipse fill="none" stroke="black" cx="66" cy="-18" rx="50.0912" ry="18"/>
<text text-anchor="middle" x="66" y="-14.3" font-family="Times,serif" font-size="14.00" fill="gray">\Exception</text>
</g>
<!-- \\ReCaptcha\\CaptchaException&#45;&gt;\\Exception -->
<g id="edge1" class="edge"><title>\\ReCaptcha\\CaptchaException&#45;&gt;\\Exception</title>
<path fill="none" stroke="black" d="M188.474,-61.127C164.363,-52.5666 135.248,-42.23 111.567,-33.8226"/>
<polygon fill="none" stroke="black" points="112.71,-30.5145 102.116,-30.467 110.368,-37.1111 112.71,-30.5145"/>
</g>
<!-- \\ReCaptcha\\CaptchaTheme -->
<g id="node2" class="node"><title>\\ReCaptcha\\CaptchaTheme</title>
<polygon fill="none" stroke="black" points="107.5,-150 24.5,-150 24.5,-114 107.5,-114 107.5,-150"/>
<text text-anchor="middle" x="66" y="-129.2" font-family="Times,serif" font-size="11.00">CaptchaTheme</text>
</g>
<!-- \\ReCaptcha\\Captcha -->
<g id="node3" class="node"><title>\\ReCaptcha\\Captcha</title>
<polygon fill="none" stroke="black" points="264,-150 210,-150 210,-114 264,-114 264,-150"/>
<text text-anchor="middle" x="237" y="-129.2" font-family="Times,serif" font-size="11.00">Captcha</text>
</g>
<!-- \\ReCaptcha\\Captcha&#45;&gt;\\ReCaptcha\\CaptchaTheme -->
<g id="edge2" class="edge"><title>\\ReCaptcha\\Captcha&#45;&gt;\\ReCaptcha\\CaptchaTheme</title>
<path fill="none" stroke="black" d="M209.964,-132C185.424,-132 147.981,-132 117.57,-132"/>
<polygon fill="none" stroke="black" points="117.554,-128.5 107.554,-132 117.554,-135.5 117.554,-128.5"/>
</g>
</g>
</svg>
